<svg width="100" height="100" viewBox="0 0 100 100" fill="none" xmlns="http://www.w3.org/2000/svg">
<g filter="url(#filter0_d_171_278)">
<path d="M50 8.3335C27.0251 8.3335 8.33331 27.0253 8.33331 50.0002C8.33331 72.975 27.0251 91.6668 50 91.6668C72.9748 91.6668 91.6666 72.975 91.6666 50.0002C91.6666 27.0253 72.9748 8.3335 50 8.3335ZM50 14.5835C69.5971 14.5835 85.4166 30.4031 85.4166 50.0002C85.4166 65.9697 74.9103 79.4221 60.4166 83.8584V73.2017C60.4166 69.2223 58.1236 65.8098 54.8095 64.1115C58.0318 63.495 61.0239 62.2726 63.5374 60.5458C66.0508 58.8189 68.0132 56.6373 69.2617 54.1822C70.5101 51.7271 71.0087 49.0691 70.7159 46.4289C70.4231 43.7888 69.3474 41.2426 67.5781 39.0016C68.5022 36.1573 69.5344 31.1682 67.0817 27.2422C62.3528 27.2422 59.3014 30.4837 57.845 32.4993C55.3554 31.6815 52.6913 31.2573 50 31.2502C47.3069 31.2525 44.64 31.6726 42.1468 32.4871C40.6869 30.4705 37.6379 27.2422 32.9183 27.2422C30.1035 31.7477 31.8436 36.593 32.7759 38.5703C30.887 40.8016 29.7026 43.366 29.3242 46.0438C28.9458 48.7216 29.3847 51.4328 30.6032 53.9451C31.8218 56.4575 33.7837 58.6959 36.3207 60.4687C38.8578 62.2414 41.8943 63.4956 45.1701 64.1237C42.4489 65.5262 40.411 68.0711 39.7868 71.159H37.0483C34.3462 71.159 33.2963 70.0611 31.8359 68.209C30.3942 66.3569 28.8441 65.1124 26.9816 64.5957C25.9774 64.4895 25.3009 65.2533 26.1759 65.9303C29.1322 67.9428 29.3362 71.2367 30.5216 73.3929C31.6008 75.3346 33.8118 77.0835 36.3118 77.0835H39.5833V83.8584C25.0897 79.4221 14.5833 65.9697 14.5833 50.0002C14.5833 30.4031 30.4029 14.5835 50 14.5835Z" fill="white"/>
</g>
<defs>
<filter id="filter0_d_171_278" x="-4" y="0" width="108" height="108" filterUnits="userSpaceOnUse" color-interpolation-filters="sRGB">
<feFlood flood-opacity="0" result="BackgroundImageFix"/>
<feColorMatrix in="SourceAlpha" type="matrix" values="0 0 0 0 0 0 0 0 0 0 0 0 0 0 0 0 0 0 127 0" result="hardAlpha"/>
<feOffset dy="4"/>
<feGaussianBlur stdDeviation="2"/>
<feComposite in2="hardAlpha" operator="out"/>
<feColorMatrix type="matrix" values="0 0 0 0 0 0 0 0 0 0 0 0 0 0 0 0 0 0 0.25 0"/>
<feBlend mode="normal" in2="BackgroundImageFix" result="effect1_dropShadow_171_278"/>
<feBlend mode="normal" in="SourceGraphic" in2="effect1_dropShadow_171_278" result="shape"/>
</filter>
</defs>
</svg>
