<svg width="76" height="76" viewBox="0 0 76 76" fill="none" xmlns="http://www.w3.org/2000/svg">
<path d="M67.1667 0.5H8.83333C4.22917 0.5 0.5 4.22917 0.5 8.83333V67.1667C0.5 71.7708 4.22917 75.5 8.83333 75.5H40.5875V46.4958H30.825V35.1417H40.5875V26.7875C40.5875 17.1042 46.5083 11.825 55.15 11.825C58.0625 11.8167 60.9708 11.9667 63.8667 12.2625V22.3875H57.9167C53.2083 22.3875 52.2917 24.6125 52.2917 27.8958V35.125H63.5417L62.0792 46.4792H52.225V75.5H67.1667C71.7708 75.5 75.5 71.7708 75.5 67.1667V8.83333C75.5 4.22917 71.7708 0.5 67.1667 0.5Z" fill="white"/>
</svg>
