<svg width="425" height="443" viewBox="0 0 425 443" fill="none" xmlns="http://www.w3.org/2000/svg">
<g filter="url(#filter0_d_157_155)">
<path d="M5 338.695L42.5199 56.5321C51.4988 35.2465 59.4995 25.4931 86.0431 14.5078C169.926 6.63801 237.871 4.95855 351.684 1C381.017 9.8112 398.61 14.5281 413.217 56.5321C416.7 170.345 420.367 251.574 419.971 325.938C418.772 358.978 411.418 372.127 385.452 385.222C228.097 414.091 141.987 429.655 68.0335 434C23.4371 420.114 5.3272 400.961 5 338.695Z" fill="#051E55"/>
<path d="M5 338.695L42.5199 56.5321C51.4988 35.2465 59.4995 25.4931 86.0431 14.5078C169.926 6.63801 237.871 4.95855 351.684 1C381.017 9.8112 398.61 14.5281 413.217 56.5321C416.7 170.345 420.367 251.574 419.971 325.938C418.772 358.978 411.418 372.127 385.452 385.222C228.097 414.091 141.987 429.655 68.0335 434C23.4371 420.114 5.3272 400.961 5 338.695Z" stroke="white"/>
</g>
<defs>
<filter id="filter0_d_157_155" x="0.499878" y="0.497559" width="424" height="442.007" filterUnits="userSpaceOnUse" color-interpolation-filters="sRGB">
<feFlood flood-opacity="0" result="BackgroundImageFix"/>
<feColorMatrix in="SourceAlpha" type="matrix" values="0 0 0 0 0 0 0 0 0 0 0 0 0 0 0 0 0 0 127 0" result="hardAlpha"/>
<feOffset dy="4"/>
<feGaussianBlur stdDeviation="2"/>
<feComposite in2="hardAlpha" operator="out"/>
<feColorMatrix type="matrix" values="0 0 0 0 0 0 0 0 0 0 0 0 0 0 0 0 0 0 0.25 0"/>
<feBlend mode="normal" in2="BackgroundImageFix" result="effect1_dropShadow_157_155"/>
<feBlend mode="normal" in="SourceGraphic" in2="effect1_dropShadow_157_155" result="shape"/>
</filter>
</defs>
</svg>
