<svg width="311" height="351" viewBox="0 0 311 351" fill="none" xmlns="http://www.w3.org/2000/svg">
<g filter="url(#filter0_d_157_175)">
<path d="M306.573 62.379C303.534 140.216 301.514 182.621 294.939 246.625C289.376 271.099 283.492 281.226 264.399 288.134C188.361 309.839 135.021 327.216 73.1644 342.024C47.9797 341.42 39.001 334.859 30.9909 320.177C17.3036 268.391 14.7437 211.689 4.81427 139.573C3.48331 111.761 8.98865 100.465 30.9909 88.5958C111.599 54.7466 228.77 8.48904 228.77 8.48904C228.77 8.48904 251.167 -2.28745 264.399 0.478369C279.875 5.33135 286.608 10.7048 294.939 21.5974C304.55 34.4499 307.068 43.3868 306.573 62.379Z" fill="#051E55"/>
</g>
<defs>
<filter id="filter0_d_157_175" x="0.628052" y="0.0244141" width="310.004" height="350" filterUnits="userSpaceOnUse" color-interpolation-filters="sRGB">
<feFlood flood-opacity="0" result="BackgroundImageFix"/>
<feColorMatrix in="SourceAlpha" type="matrix" values="0 0 0 0 0 0 0 0 0 0 0 0 0 0 0 0 0 0 127 0" result="hardAlpha"/>
<feOffset dy="4"/>
<feGaussianBlur stdDeviation="2"/>
<feComposite in2="hardAlpha" operator="out"/>
<feColorMatrix type="matrix" values="0 0 0 0 0 0 0 0 0 0 0 0 0 0 0 0 0 0 0.25 0"/>
<feBlend mode="normal" in2="BackgroundImageFix" result="effect1_dropShadow_157_175"/>
<feBlend mode="normal" in="SourceGraphic" in2="effect1_dropShadow_157_175" result="shape"/>
</filter>
</defs>
</svg>
