<svg width="81" height="71" viewBox="0 0 81 71" fill="none" xmlns="http://www.w3.org/2000/svg">
<path d="M50.5 48.2166C50.5 49.5978 49.3812 50.7166 48 50.7166H33C31.6187 50.7166 30.5 49.5978 30.5 48.2166V40.7166H0.5V63.2166C0.5 67.2166 4 70.7166 8 70.7166H73C77 70.7166 80.5 67.2166 80.5 63.2166V40.7166H50.5V48.2166ZM73 15.7166H60.5V8.21655C60.5 4.21655 57 0.716553 53 0.716553H28C24 0.716553 20.5 4.21655 20.5 8.21655V15.7166H8C4 15.7166 0.5 19.2166 0.5 23.2166V35.7166H80.5V23.2166C80.5 19.2166 77 15.7166 73 15.7166ZM50.5 15.7166H30.5V10.7166H50.5V15.7166Z" fill="white"/>
</svg>
