<svg width="80" height="65" viewBox="0 0 80 65" fill="none" xmlns="http://www.w3.org/2000/svg">
<path d="M34.8629 64.7262L27.2385 62.5085C26.4386 62.283 25.9886 61.4436 26.2136 60.6417L43.2747 1.7299C43.4997 0.928043 44.3372 0.476995 45.1371 0.702519L52.7615 2.92017C53.5614 3.14569 54.0114 3.98514 53.7864 4.787L36.7252 63.6988C36.4878 64.5007 35.6628 64.9642 34.8629 64.7262ZM20.614 50.6685L26.0511 44.855C26.626 44.2411 26.5885 43.2639 25.9511 42.7L14.627 32.7144L25.9511 22.7287C26.5885 22.1649 26.6385 21.1876 26.0511 20.5737L20.614 14.7602C20.0516 14.1588 19.1016 14.1212 18.4892 14.6975L0.478088 31.6118C-0.159363 32.2007 -0.159363 33.2155 0.478088 33.8044L18.4892 50.7312C19.1016 51.3075 20.0516 51.2825 20.614 50.6685ZM61.5108 50.7437L79.5219 33.8169C80.1594 33.228 80.1594 32.2132 79.5219 31.6243L61.5108 14.685C60.9109 14.1212 59.9609 14.1462 59.386 14.7476L53.9489 20.5611C53.374 21.1751 53.4114 22.1523 54.0489 22.7161L65.373 32.7144L54.0489 42.7C53.4114 43.2639 53.3615 44.2411 53.9489 44.855L59.386 50.6685C59.9484 51.2825 60.8984 51.3075 61.5108 50.7437Z" fill="white"/>
</svg>
