<svg width="80" height="57" viewBox="0 0 80 57" fill="none" xmlns="http://www.w3.org/2000/svg">
<path d="M12 24.7166C16.4125 24.7166 20 21.1291 20 16.7166C20 12.3041 16.4125 8.71655 12 8.71655C7.5875 8.71655 4 12.3041 4 16.7166C4 21.1291 7.5875 24.7166 12 24.7166ZM68 24.7166C72.4125 24.7166 76 21.1291 76 16.7166C76 12.3041 72.4125 8.71655 68 8.71655C63.5875 8.71655 60 12.3041 60 16.7166C60 21.1291 63.5875 24.7166 68 24.7166ZM72 28.7166H64C61.8 28.7166 59.8125 29.6041 58.3625 31.0416C63.4 33.8041 66.975 38.7916 67.75 44.7166H76C78.2125 44.7166 80 42.9291 80 40.7166V36.7166C80 32.3041 76.4125 28.7166 72 28.7166ZM40 28.7166C47.7375 28.7166 54 22.4541 54 14.7166C54 6.97905 47.7375 0.716553 40 0.716553C32.2625 0.716553 26 6.97905 26 14.7166C26 22.4541 32.2625 28.7166 40 28.7166ZM49.6 32.7166H48.5625C45.9625 33.9666 43.075 34.7166 40 34.7166C36.925 34.7166 34.05 33.9666 31.4375 32.7166H30.4C22.45 32.7166 16 39.1666 16 47.1166V50.7166C16 54.0291 18.6875 56.7166 22 56.7166H58C61.3125 56.7166 64 54.0291 64 50.7166V47.1166C64 39.1666 57.55 32.7166 49.6 32.7166ZM21.6375 31.0416C20.1875 29.6041 18.2 28.7166 16 28.7166H8C3.5875 28.7166 0 32.3041 0 36.7166V40.7166C0 42.9291 1.7875 44.7166 4 44.7166H12.2375C13.025 38.7916 16.6 33.8041 21.6375 31.0416Z" fill="white"/>
</svg>
