<svg width="80" height="92" viewBox="0 0 80 92" fill="none" xmlns="http://www.w3.org/2000/svg">
<path d="M57.0357 57.2545L40 74.2902L22.9643 57.2545C10.1964 57.808 0 68.2545 0 81.1473V82.8616C0 87.5938 3.83929 91.433 8.57143 91.433H71.4286C76.1607 91.433 80 87.5938 80 82.8616V81.1473C80 68.2545 69.8036 57.808 57.0357 57.2545ZM2.42857 14.2545L3.57143 14.5223V24.9509C2.32143 25.7009 1.42857 27.0045 1.42857 28.5759C1.42857 30.0759 2.25 31.3259 3.41071 32.0938L0.625 43.2188C0.321429 44.4509 1 45.7188 1.98214 45.7188H9.44643C10.4286 45.7188 11.1071 44.4509 10.8036 43.2188L8.01786 32.0938C9.17857 31.3259 10 30.0759 10 28.5759C10 27.0045 9.10714 25.7009 7.85714 24.9509V15.558L19.6429 18.3973C18.1071 21.4688 17.1429 24.8973 17.1429 28.5759C17.1429 41.2009 27.375 51.433 40 51.433C52.625 51.433 62.8571 41.2009 62.8571 28.5759C62.8571 24.8973 61.9107 21.4688 60.3571 18.3973L77.5536 14.2545C80.8036 13.4688 80.8036 9.41518 77.5536 8.62947L43.5536 0.415179C41.2321 -0.138393 38.7857 -0.138393 36.4643 0.415179L2.42857 8.61161C-0.803571 9.39732 -0.803571 13.4688 2.42857 14.2545Z" fill="white"/>
</svg>
