<svg width="36" height="36" viewBox="0 0 36 36" fill="none" xmlns="http://www.w3.org/2000/svg">
<path d="M11.8601 16.5498C11.1203 16.5523 10.3937 16.7452 9.75005 17.1098C10.6562 14.7643 12.1591 12.6961 14.1101 11.1098C14.2217 11.0179 14.3141 10.9049 14.3821 10.7772C14.45 10.6496 14.4921 10.5098 14.5061 10.3659C14.52 10.222 14.5054 10.0767 14.4632 9.93839C14.421 9.80009 14.352 9.67145 14.2601 9.55983C14.1681 9.4482 14.0551 9.35578 13.9275 9.28783C13.7998 9.21988 13.6601 9.17774 13.5161 9.16381C13.3722 9.14988 13.2269 9.16444 13.0886 9.20665C12.9503 9.24886 12.8217 9.3179 12.7101 9.40983C8.71005 12.6598 6.93005 17.1598 6.93005 19.9498C6.93695 20.9363 7.23092 21.8995 7.77609 22.7217C8.32126 23.5438 9.09403 24.1895 10.0001 24.5798C10.5864 24.8639 11.2285 25.0142 11.8801 25.0198C12.4535 25.0477 13.0267 24.9588 13.5647 24.7586C14.1028 24.5583 14.5946 24.2509 15.0104 23.8549C15.4261 23.4589 15.757 22.9826 15.9832 22.4548C16.2093 21.9271 16.3259 21.359 16.3259 20.7848C16.3259 20.2107 16.2093 19.6425 15.9832 19.1148C15.757 18.5871 15.4261 18.1108 15.0104 17.7148C14.5946 17.3188 14.1028 17.0113 13.5647 16.8111C13.0267 16.6108 12.4535 16.522 11.8801 16.5498H11.8601Z" fill="#7838A6"/>
<path d="M22.9999 16.55C22.2601 16.5516 21.5332 16.7445 20.8899 17.11C21.7957 14.767 23.2947 12.6995 25.2399 11.11C25.3617 11.0223 25.4642 10.9105 25.5412 10.7816C25.6181 10.6528 25.6679 10.5095 25.6874 10.3607C25.7069 10.2119 25.6958 10.0607 25.6547 9.91633C25.6135 9.77198 25.5433 9.63758 25.4483 9.52139C25.3533 9.40519 25.2355 9.30967 25.1022 9.2407C24.9689 9.17173 24.8229 9.13077 24.6732 9.12034C24.5235 9.1099 24.3732 9.13022 24.2316 9.18004C24.09 9.22986 23.9601 9.30812 23.8499 9.41002C19.8499 12.66 18.0699 17.16 18.0699 19.95C18.0747 20.9253 18.3601 21.8787 18.8921 22.6962C19.4241 23.5136 20.1801 24.1607 21.0699 24.56C21.6712 24.8524 22.3314 25.0029 22.9999 25C23.5734 25.0279 24.1466 24.939 24.6846 24.7388C25.2227 24.5385 25.7145 24.2311 26.1302 23.8351C26.546 23.4391 26.8769 22.9628 27.1031 22.435C27.3292 21.9073 27.4458 21.3392 27.4458 20.765C27.4458 20.1909 27.3292 19.6227 27.1031 19.095C26.8769 18.5673 26.546 18.091 26.1302 17.695C25.7145 17.299 25.2227 16.9915 24.6846 16.7913C24.1466 16.591 23.5734 16.5021 22.9999 16.53V16.55Z" fill="#7838A6"/>
</svg>
