<svg width="1294" height="145" viewBox="0 0 1294 145" fill="none" xmlns="http://www.w3.org/2000/svg">
<path d="M1293.75 28.2735C1293.73 28.2168 1293.71 28.1614 1293.68 28.1076C1293.65 28.0026 1293.61 27.9006 1293.56 27.8025C1293.52 27.7415 1293.47 27.6836 1293.42 27.6291C1293.37 27.549 1293.31 27.4724 1293.25 27.3997C1293.19 27.346 1293.12 27.3021 1293.06 27.2532C1292.99 27.1933 1292.92 27.1379 1292.84 27.0873L1269.34 13.5597C1269.05 13.3883 1268.71 13.2981 1268.37 13.2981C1268.02 13.2981 1267.69 13.3883 1267.39 13.5597L1243.89 27.0946C1243.81 27.1457 1243.74 27.202 1243.68 27.263C1243.61 27.3077 1243.55 27.3566 1243.48 27.4095C1243.42 27.4808 1243.36 27.5567 1243.31 27.6365C1243.27 27.695 1243.21 27.7463 1243.18 27.8098C1243.13 27.9084 1243.09 28.0103 1243.05 28.1149C1243.03 28.171 1243 28.2223 1242.98 28.2809C1242.94 28.4464 1242.91 28.6171 1242.91 28.7886V54.4768L1223.33 65.7513V15.4856C1223.33 15.3132 1223.31 15.1416 1223.26 14.9754C1223.25 14.9169 1223.22 14.8656 1223.2 14.8095C1223.16 14.7053 1223.12 14.6041 1223.07 14.5068C1223.03 14.4433 1222.98 14.3921 1222.94 14.331C1222.88 14.2509 1222.82 14.1743 1222.76 14.1016C1222.7 14.0495 1222.64 14.0006 1222.57 13.9551C1222.5 13.8958 1222.43 13.8404 1222.36 13.7892L1198.85 0.261616C1198.56 0.0902284 1198.22 0 1197.88 0C1197.53 0 1197.2 0.0902284 1196.9 0.261616L1173.4 13.7892C1173.32 13.839 1173.25 13.8954 1173.19 13.9576C1173.12 14.0023 1173.05 14.0512 1172.99 14.104C1172.93 14.1755 1172.87 14.2513 1172.82 14.331C1172.78 14.3921 1172.72 14.4433 1172.69 14.5068C1172.64 14.604 1172.59 14.7052 1172.56 14.8095C1172.53 14.8626 1172.51 14.9172 1172.49 14.973C1172.45 15.1402 1172.42 15.3125 1172.42 15.4856V95.9625C1172.42 96.3062 1172.51 96.6441 1172.68 96.9419C1172.85 97.2398 1173.1 97.4871 1173.4 97.659L1220.39 124.714C1220.49 124.767 1220.6 124.811 1220.71 124.846C1220.76 124.865 1220.81 124.895 1220.86 124.909C1221.19 124.997 1221.54 124.997 1221.87 124.909C1221.91 124.897 1221.96 124.87 1222 124.856C1222.12 124.819 1222.23 124.771 1222.34 124.714L1269.34 97.659C1269.64 97.4871 1269.89 97.2398 1270.06 96.9419C1270.23 96.6441 1270.32 96.3062 1270.32 95.9625V70.2695L1292.84 57.3058C1293.13 57.1329 1293.38 56.8836 1293.55 56.5834C1293.73 56.2832 1293.81 55.9429 1293.81 55.5971V28.7837C1293.81 28.6119 1293.79 28.4406 1293.75 28.2735ZM1197.87 4.21834L1217.45 15.4832L1197.87 26.7553L1178.3 15.4856L1197.87 4.21834ZM1219.41 18.8638V68.0043L1208.06 74.5435L1199.83 79.2789V30.1457L1211.19 23.6065L1219.41 18.8638ZM1219.41 119.62L1176.34 94.8299V18.8736L1184.56 23.6041L1195.92 30.1457V82.6693C1195.92 82.7431 1195.93 82.8165 1195.95 82.889C1195.95 82.9858 1195.96 83.0821 1195.98 83.177C1196.01 83.2527 1196.04 83.3262 1196.08 83.3967C1196.1 83.4808 1196.14 83.5625 1196.18 83.6408C1196.22 83.707 1196.27 83.7706 1196.33 83.8312C1196.38 83.9032 1196.43 83.9717 1196.49 84.0362C1196.54 84.0899 1196.61 84.129 1196.68 84.1778C1196.74 84.2357 1196.81 84.2895 1196.89 84.3389L1219.39 97.0756L1219.41 119.62ZM1221.37 93.7047L1201.83 82.6425L1222.35 70.826L1244.87 57.8623L1264.43 69.1222L1250.08 77.3139L1221.37 93.7047ZM1266.41 94.8202L1223.33 119.632V97.1L1255.24 78.8908L1266.41 72.5078V94.8202ZM1266.41 65.7416L1258.18 61.0233L1246.83 54.4841V32.1692L1255.05 36.9046L1266.41 43.4487V65.7416ZM1268.36 40.0436L1248.78 28.7739L1268.36 17.5067L1287.93 28.7715L1268.36 40.0436ZM1270.31 65.7416V43.4487L1281.69 36.9046L1289.92 32.1692V54.4768L1270.31 65.7416Z" fill="#0E3C8A"/>
<path d="M1029.56 42.5004L1054.41 110.537C1037.03 102.118 1025.06 84.3014 1025.06 63.6946C1025.06 56.1322 1026.68 48.9859 1029.56 42.5004ZM1112.26 61.0759C1112.26 54.6394 1109.96 50.1852 1107.98 46.7099C1105.34 42.427 1102.86 38.7804 1102.86 34.4976C1102.86 29.7007 1106.49 25.2465 1111.6 25.2465C1111.82 25.2465 1112.04 25.271 1112.29 25.2955C1103.01 16.8031 1090.68 11.6147 1077.12 11.6147C1058.93 11.6147 1042.93 20.9392 1033.6 35.0849C1034.83 35.1339 1035.98 35.1583 1036.96 35.1583C1042.39 35.1583 1050.83 34.4976 1050.83 34.4976C1053.65 34.3262 1053.96 38.4623 1051.17 38.7804C1051.17 38.7804 1048.36 39.0986 1045.23 39.2699L1064.19 95.6572L1075.6 61.492L1067.5 39.2699C1064.68 39.0986 1062.04 38.7804 1062.04 38.7804C1059.23 38.6091 1059.57 34.3262 1062.36 34.4976C1062.36 34.4976 1070.95 35.1583 1076.06 35.1583C1081.5 35.1583 1089.94 34.4976 1089.94 34.4976C1092.76 34.3262 1093.07 38.4623 1090.28 38.7804C1090.28 38.7804 1087.47 39.0986 1084.34 39.2699L1103.16 95.2411L1108.35 77.8893C1110.55 70.694 1112.26 65.5301 1112.26 61.0759ZM1078.02 68.2467L1062.41 113.645C1067.08 115.016 1072 115.774 1077.12 115.774C1083.19 115.774 1088.99 114.722 1094.4 112.813C1094.25 112.593 1094.13 112.348 1094.03 112.103L1078.02 68.2467ZM1122.81 38.707C1123.03 40.3712 1123.15 42.1333 1123.15 44.0667C1123.15 49.353 1122.17 55.2757 1119.19 62.7156L1103.28 108.702C1118.77 99.6708 1129.17 82.9064 1129.17 63.6946C1129.17 54.6394 1126.87 46.1225 1122.81 38.707ZM1137.81 63.6946C1137.81 97.1745 1110.57 124.389 1077.12 124.389C1043.64 124.389 1016.42 97.15 1016.42 63.6946C1016.42 30.2147 1043.64 3 1077.12 3C1110.57 3 1137.81 30.2147 1137.81 63.6946ZM1135.02 63.6946C1135.02 31.7565 1109.03 5.78999 1077.12 5.78999C1045.18 5.78999 1019.21 31.7565 1019.21 63.6946C1019.21 95.6327 1045.2 121.599 1077.12 121.599C1109.06 121.599 1135.02 95.6327 1135.02 63.6946Z" fill="#0E3C8A"/>
<path d="M943.806 3H848.428C841.248 3 835.422 8.8256 835.422 16.006V111.383C835.422 118.564 841.248 124.389 848.428 124.389H943.806C950.986 124.389 956.812 118.564 956.812 111.383V16.006C956.812 8.8256 950.986 3 943.806 3ZM901.482 97.6727C901.482 109.486 894.545 114.879 884.439 114.879C875.307 114.879 870.024 110.164 867.314 104.447L876.608 98.8379C878.396 102.008 880.022 104.691 883.951 104.691C887.69 104.691 890.075 103.227 890.075 97.5101V58.7361H901.482V97.6727ZM928.469 114.879C917.875 114.879 911.02 109.839 907.687 103.227L916.981 97.8624C919.419 101.845 922.617 104.799 928.226 104.799C932.94 104.799 935.975 102.442 935.975 99.163C935.975 95.2612 932.886 93.8793 927.657 91.5762L924.811 90.3569C916.574 86.8615 911.128 82.4449 911.128 73.151C911.128 64.5888 917.658 58.0858 927.819 58.0858C935.081 58.0858 940.283 60.6057 944.022 67.217L935.135 72.9072C933.184 69.4118 931.071 68.0299 927.792 68.0299C924.459 68.0299 922.346 70.1434 922.346 72.9072C922.346 76.3212 924.459 77.7031 929.364 79.8437L932.209 81.063C941.909 85.2087 947.355 89.4627 947.355 99.0004C947.355 109.243 939.281 114.879 928.469 114.879Z" fill="#0E3C8A"/>
<path d="M731.922 8.68984C773.969 8.68984 806.301 33.1426 806.301 60C806.301 86.8574 773.944 111.31 731.922 111.31C689.876 111.31 657.544 86.8574 657.544 60C657.544 33.1426 689.9 8.68984 731.922 8.68984ZM731.922 3C688.576 3 653.422 28.5027 653.422 60C653.422 91.4973 688.576 117 731.922 117C775.269 117 810.422 91.4973 810.422 60C810.422 28.5027 775.269 3 731.922 3ZM706.95 55.4278C705.012 69.1444 698.167 67.7219 689.753 67.7219L693.114 43.8111C702.436 43.8111 708.765 42.4225 706.95 55.4278ZM677.316 91.9376H686.319L688.453 76.7647C698.535 76.7647 704.791 77.7808 710.58 70.2959C716.983 62.1676 718.651 47.7059 714.088 40.4581C711.709 36.6649 707.882 34.8021 702.681 34.8021H685.338L677.316 91.9376ZM722.87 19.5954H731.824L729.69 34.7683C737.417 34.7683 744.581 33.9893 748.039 38.3922C751.67 42.9982 749.928 48.8913 746.003 76.697H736.927C740.705 49.8057 741.416 47.5704 740.042 45.5383C738.718 43.574 735.7 43.9804 728.414 43.9804L723.803 76.697H714.849L722.87 19.5954ZM777.305 55.4278C775.343 69.3476 768.302 67.7219 760.109 67.7219L763.47 43.8111C772.841 43.8111 779.121 42.4225 777.305 55.4278ZM747.671 91.9376H756.699L758.833 76.7647C769.431 76.7647 775.294 77.6114 780.96 70.2959C787.363 62.1676 789.031 47.7059 784.468 40.4581C782.089 36.6649 778.262 34.8021 773.061 34.8021H755.718L747.671 91.9376Z" fill="#0E3C8A"/>
<path d="M572.623 79.8493C572.623 91.3406 561.861 91.0751 560.723 91.0751H538.805V68.9405H560.723C572.255 68.9405 572.623 77.5841 572.623 79.8493ZM559.035 60.0341C559.216 60.0341 569.451 60.3051 569.451 50.1956C569.451 45.9904 568.499 40.4764 559.035 40.4764H538.805V60.0341H559.035ZM614.812 24.2324V105.157C614.796 110.518 612.659 115.655 608.868 119.446C605.077 123.237 599.94 125.373 594.579 125.389H513.655C508.294 125.373 503.157 123.237 499.366 119.446C495.575 115.655 493.438 110.518 493.422 105.157V24.2324C493.438 18.8713 495.575 13.7342 499.366 9.94332C503.157 6.1524 508.294 4.01573 513.655 4H594.579C599.94 4.01573 605.077 6.1524 608.868 9.94332C612.659 13.7342 614.796 18.8713 614.812 24.2324ZM585.02 81.4561C585.02 75.6115 583.218 65.6619 571.729 63.207V63.0092C577.937 60.3593 581.847 55.3547 581.847 47.9331C581.847 46.0364 582.389 30.3805 560.821 30.3805H526.409V101.19C561.154 101.19 564.308 101.645 570.738 99.6428C574.588 98.4451 585.02 94.7709 585.02 81.4561Z" fill="#0E3C8A"/>
<path d="M388.677 90.7215C388.553 90.9915 388.615 90.8715 388.677 90.7215V90.7215ZM440.061 68.9733C435.912 68.9717 431.819 70.1264 428.098 72.348C426.881 69.3733 425.623 66.7735 425.417 64.8237C425.169 62.5488 424.901 61.199 425.19 58.4992C425.479 55.7994 426.778 51.9747 426.757 51.6997C426.737 51.4248 426.469 50.0499 423.808 50.0249C421.147 49.9999 418.858 50.6498 418.592 51.4997C418.122 53.053 417.756 54.6497 417.499 56.2744C417.024 59.1991 412.179 69.6483 409.436 75.0978C408.529 72.973 407.766 71.0982 407.601 69.5983C407.353 67.3235 407.085 65.9736 407.374 63.2738C407.662 60.574 408.962 56.7493 408.941 56.4743C408.921 56.1994 408.652 54.8245 405.994 54.7995C403.335 54.7745 401.044 55.4244 400.776 56.2744C400.508 57.1243 400.219 59.1241 399.683 61.049C399.146 62.9738 392.693 80.3724 391.003 84.897C390.137 87.1968 389.395 89.0467 388.858 90.2966C388.776 90.4966 388.714 90.6216 388.673 90.7215C388.735 90.5966 388.776 90.4716 388.776 90.5216C388.322 91.5965 388.054 92.1964 388.054 92.1964V92.2214C387.703 93.0214 387.312 93.7463 387.126 93.7463C387.002 93.7463 386.734 91.6465 387.188 88.7717C388.157 82.7222 390.447 73.323 390.426 72.998C390.405 72.823 390.859 71.1981 388.92 70.3232C387.043 69.4983 386.363 70.8732 386.198 70.8732C386.033 70.8732 385.909 71.3731 385.909 71.3731C385.909 71.3731 387.992 60.774 381.91 60.774C378.115 60.774 372.835 65.8236 370.24 70.3982C368.611 71.4731 365.084 73.7979 361.371 76.2727C359.948 77.2226 358.484 78.1976 357.102 79.1225C356.999 78.9975 356.916 78.8725 356.813 78.7475C349.431 69.1983 335.802 62.4489 336.38 49.6249C336.586 44.9503 337.926 32.6763 362.588 17.7775C382.801 5.57849 398.961 8.92821 401.743 16.3776C405.744 27.0017 393.103 46.7751 372.113 49.6249C364.112 50.6998 359.907 46.9501 358.855 45.5502C357.762 44.0753 357.597 44.0004 357.184 44.2753C356.504 44.7253 356.937 46.0252 357.184 46.8001C357.803 48.775 360.381 52.2747 364.772 54.0245C368.629 55.5494 378.01 56.3993 389.351 51.0748C402.094 45.1253 412.012 28.5516 409.104 14.6777C406.142 0.578892 386.854 -4.04573 368.615 3.80363C357.747 8.47825 345.995 15.8277 337.541 25.4019C327.498 36.8009 325.892 46.7251 326.552 50.8748C328.901 65.5986 345.644 75.1978 352.346 82.2972C352.016 82.5222 351.706 82.7222 351.417 82.9222C348.058 84.947 335.293 93.0464 332.098 101.596C328.488 111.295 332.696 118.244 335.458 119.194C344.077 122.094 352.902 116.869 357.644 108.295C362.386 99.7208 361.81 88.5217 359.624 83.4221C359.604 83.3471 359.562 83.2972 359.542 83.2222C360.408 82.5972 361.295 81.9723 362.182 81.3473C363.892 80.1224 365.562 78.9975 367.027 78.0226C366.202 80.7224 365.603 83.9721 365.294 88.6717C364.923 94.1713 366.8 101.296 369.233 104.095C370.306 105.32 371.603 105.345 372.408 105.345C375.254 105.345 376.533 102.496 377.954 99.0959C379.707 94.9462 381.254 90.1216 381.254 90.1216C381.254 90.1216 379.315 103.171 384.616 103.171C386.553 103.171 388.491 100.146 389.36 98.5959V98.6209C389.36 98.6209 389.401 98.5209 389.504 98.3209C389.71 97.946 389.813 97.721 389.813 97.721V97.646C390.597 96.0211 392.309 92.2964 394.885 86.1469C398.226 78.1976 401.421 68.2734 401.421 68.2734C401.73 70.455 402.157 72.6095 402.7 74.7229C403.278 77.0977 404.494 79.6974 405.464 82.2222C404.68 83.5221 404.206 84.2721 404.206 84.2721C404.207 84.2913 404.215 84.3091 404.226 84.3221C403.608 85.322 402.906 86.3969 402.184 87.4468C399.546 91.2465 396.409 95.5962 395.997 96.8461C395.502 98.3209 395.626 99.4208 396.574 100.271C397.276 100.921 398.513 101.021 399.81 100.896C402.182 100.696 403.853 99.9958 404.657 99.5458C406.14 98.9013 407.542 98.0095 408.822 96.896C411.4 94.5962 412.967 91.2965 412.823 86.9469C412.74 84.5471 412.101 82.1472 411.317 79.8974C411.544 79.4975 411.792 79.0725 412.018 78.6475C416.1 71.4231 419.256 63.4938 419.256 63.4938C419.565 65.6753 419.992 67.8298 420.535 69.9432C421.03 71.9681 421.997 74.1929 422.884 76.3677C419.05 80.1424 416.678 84.5171 415.853 87.3918C414.326 92.7164 415.523 95.1162 417.771 95.6661C418.782 95.9161 420.225 95.3412 421.298 94.7912C422.891 94.1482 424.392 93.2123 425.751 92.0164C428.329 89.7166 430.823 86.4919 430.658 82.1172C430.596 80.1424 430.142 78.1676 429.544 76.2677C432.782 74.6179 436.987 73.7179 442.35 74.4679C453.834 76.0927 456.082 84.792 455.649 88.4167C455.216 92.0414 452.803 94.0663 451.998 94.6662C451.194 95.2662 450.947 95.4912 451.008 95.9411C451.112 96.5911 451.483 96.5661 452.163 96.4161C453.112 96.2161 458.184 93.4663 458.411 86.7419C458.741 78.2426 451.998 68.8933 440.054 68.9683L440.061 68.9733ZM351.541 105.145C347.748 110.17 342.427 112.07 340.14 110.47C337.685 108.74 338.655 101.346 343.334 95.9911C346.181 92.7414 349.85 89.7416 352.284 87.8918C352.841 87.4918 353.645 86.8919 354.635 86.1669C354.8 86.0419 354.882 85.9919 354.882 85.9919C355.068 85.8419 355.274 85.7169 355.481 85.567C357.19 93.1663 355.542 99.8658 351.541 105.14V105.145ZM379.253 82.2972C377.933 86.2219 375.151 96.2211 373.46 95.6961C372.016 95.2462 371.129 87.6218 373.171 80.1224C374.202 76.3477 376.388 71.8481 377.688 70.0982C379.769 67.2735 382.058 66.3735 382.595 67.4984C383.316 68.9733 380.078 79.8474 379.253 82.2972ZM402.147 95.5462C401.59 95.8961 401.075 96.1211 400.827 95.9461C400.642 95.8211 401.054 95.3462 401.054 95.3462C401.054 95.3462 403.921 91.6215 405.055 89.9216C405.715 88.9217 406.479 87.7468 407.302 86.4469C407.302 86.5719 407.322 86.6969 407.322 86.8469C407.295 91.3215 403.75 94.3463 402.141 95.5462H402.147ZM419.798 90.6716C419.386 90.3216 419.448 89.1467 420.83 85.497C421.366 84.0721 422.601 81.6723 424.748 79.3725C424.991 80.243 425.124 81.1534 425.14 82.0723C425.12 87.6968 421.799 89.7966 419.8 90.6716H419.798Z" fill="#0E3C8A"/>
<path d="M170.422 3L181.455 128.119L231.117 144.621L280.779 128.119L291.812 3H170.422ZM269.399 28.2894L267.882 43.2418L231.433 58.8264L231.338 58.858H266.585L262.539 105.201L231.496 114.273L200.264 105.043L198.241 81.6817H213.699L214.711 93.789L231.338 97.9934L248.63 93.1252L249.8 73.6523L197.229 73.4942V73.4626L197.166 73.4942L196.028 58.858L231.465 44.0953L233.52 43.2418H194.669L192.835 28.2894H269.399Z" fill="#0E3C8A"/>
<path d="M0.422424 0L11.4549 125.119L60.959 141.621L110.779 125.119L121.812 0H0.422424ZM97.8499 40.4314H39.7475L41.0435 56.0477H96.5538L92.2546 102.96L61.3067 111.495V111.59H60.959L29.7581 102.96L27.8614 78.9978H42.9403L44.0467 91.0419L60.959 95.6256L77.9345 91.0419L79.8312 71.3794H27.0711L23.0248 25.3526H99.2408L97.8499 40.4314Z" fill="#0E3C8A"/>
</svg>
