<svg width="1297" height="119" viewBox="0 0 1297 119" fill="none" xmlns="http://www.w3.org/2000/svg">
<path d="M71.2535 40.9729C77.5514 40.9729 83.5915 38.9882 88.0448 35.4556C92.4981 31.923 95 27.1317 95 22.1358C95 17.14 92.4981 12.3487 88.0448 8.81606C83.5915 5.28344 77.5514 3.29883 71.2535 3.29883L23.7604 3.29883C17.4662 3.29883 11.4297 5.28227 6.97895 8.81283C2.52822 12.3434 0.027829 17.1318 0.027829 22.1248C0.027829 27.1178 2.52822 31.9062 6.97895 35.4368C11.4297 38.9673 17.4662 40.9508 23.7604 40.9508C17.4625 40.9508 11.4224 42.9354 6.96911 46.468C2.51578 50.0006 0.0139179 54.7919 0.0139179 59.7878C0.0139179 64.7837 2.51578 69.575 6.96911 73.1076C11.4224 76.6402 17.4625 78.6248 23.7604 78.6248C19.0638 78.6226 14.4719 79.7253 10.5652 81.7933C6.65861 83.8613 3.61279 86.8018 1.81293 90.243C0.0130746 93.6842 -0.459982 97.4715 0.453584 101.126C1.36715 104.78 3.62631 108.138 6.94537 110.774C10.2644 113.41 14.4943 115.206 19.1002 115.935C23.706 116.664 28.4809 116.293 32.8211 114.869C37.1612 113.445 40.8717 111.033 43.4833 107.936C46.0949 104.84 47.4903 101.198 47.493 97.4729V40.9729H71.2535ZM71.2535 40.9729C66.5596 40.9729 61.9712 42.077 58.0683 44.1456C54.1655 46.2142 51.1237 49.1544 49.3274 52.5944C47.5311 56.0344 47.0612 59.8197 47.9769 63.4716C48.8926 67.1235 51.1529 70.4779 54.472 73.1108C57.7911 75.7437 62.0198 77.5367 66.6235 78.2631C71.2271 78.9895 75.999 78.6167 80.3355 77.1918C84.6721 75.7669 88.3786 73.3539 90.9864 70.258C93.5942 67.1621 94.9861 63.5223 94.9861 59.7988C94.9853 54.806 92.4847 50.0179 88.0342 46.4875C83.5836 42.9571 77.5475 40.9734 71.2535 40.9729Z" fill="#0E3C8A"/>
<path d="M240.576 55.5335H226.301V42.7051H240.576V55.5335ZM240.576 11.4116H226.301V24.5208H240.576V11.4116ZM257.465 42.6835H243.189V55.5119H257.465V42.6835ZM223.709 27.1124H209.434V40.0919H223.709V27.1124ZM240.576 27.1124H226.301V40.0919H240.576V27.1124ZM300.355 48.709C297.246 46.6141 290.075 45.8582 284.568 46.8949C283.856 41.7117 280.962 37.198 275.692 33.1378L272.669 31.1293L270.66 34.1529C266.686 40.1567 265.607 50.048 269.861 56.5702C267.982 57.5852 264.289 58.9674 259.408 58.881H165.528C163.649 69.8521 166.78 84.1059 175.03 93.8892C183.043 103.37 195.05 108.186 210.751 108.186C244.744 108.186 269.904 92.5286 281.674 64.0858C286.296 64.1722 296.274 64.1074 301.392 54.3241C301.716 53.7842 302.818 51.4734 303.228 50.6311L300.355 48.709ZM189.975 42.6835H175.721V55.5119H189.997V42.6835H189.975ZM206.842 42.6835H192.567V55.5119H206.842V42.6835ZM223.709 42.6835H209.434V55.5119H223.709V42.6835ZM206.842 27.1124H192.567V40.0919H206.842V27.1124Z" fill="#0E3C8A"/>
<path d="M453.291 112.799C452.76 112.799 452.228 112.637 451.747 112.366L446.887 109.283C446.153 108.851 446.508 108.688 446.761 108.607C447.723 108.256 447.925 108.175 448.963 107.526C449.064 107.472 449.216 107.499 449.317 107.553L453.063 109.932C453.19 110.014 453.393 110.014 453.519 109.932L468.15 100.9C468.276 100.819 468.378 100.657 468.378 100.468V82.4309C468.378 82.2416 468.302 82.0793 468.15 81.9982L453.519 72.9933C453.393 72.9121 453.215 72.9121 453.063 72.9933L438.433 81.9982C438.281 82.0793 438.205 82.2686 438.205 82.4309V100.468C438.205 100.63 438.306 100.792 438.433 100.873L442.432 103.334C444.609 104.497 445.951 103.118 445.951 101.766V83.9452C445.951 83.7018 446.128 83.4855 446.381 83.4855H448.229C448.457 83.4855 448.659 83.6748 448.659 83.9452V101.766C448.659 104.876 447.09 106.633 444.331 106.633C443.495 106.633 442.812 106.633 440.964 105.66L437.117 103.307C436.18 102.712 435.573 101.631 435.573 100.468V82.4309C435.573 81.2681 436.155 80.1594 437.117 79.5915L451.747 70.5595C452.684 69.9916 453.899 69.9916 454.81 70.5595L469.441 79.5915C470.377 80.1864 470.985 81.2681 470.985 82.4309V100.468C470.985 101.631 470.403 102.739 469.441 103.307L454.81 112.339C454.38 112.637 453.848 112.799 453.291 112.799ZM465.112 95.0053C465.112 91.6251 462.986 90.7327 458.48 90.0837C453.924 89.4347 453.468 89.1102 453.468 87.9744C453.468 87.028 453.848 85.7841 457.215 85.7841C460.227 85.7841 461.341 86.4871 461.796 88.6505C461.847 88.8668 461.999 89.002 462.201 89.002H464.1C464.226 89.002 464.328 88.9479 464.403 88.8668C464.479 88.7587 464.53 88.6505 464.505 88.5153C464.201 84.7835 461.898 83.0528 457.215 83.0528C453.038 83.0528 450.558 84.9458 450.558 88.0826C450.558 91.5169 453.038 92.4363 457.038 92.869C461.822 93.3828 462.201 94.1129 462.201 95.1135C462.201 96.8712 460.885 97.6013 457.797 97.6013C453.924 97.6013 453.063 96.5737 452.785 94.5186C452.76 94.3022 452.583 94.14 452.355 94.14H450.456C450.228 94.14 450.026 94.3293 450.026 94.5997C450.026 97.2227 451.368 100.36 457.772 100.36C462.454 100.36 465.112 98.4126 465.112 95.0053ZM478.908 81.4574C478.908 83.1069 477.642 84.459 476.098 84.459C474.554 84.459 473.288 83.1069 473.288 81.4574C473.288 79.7537 474.604 78.4557 476.098 78.4557C477.617 78.4287 478.908 79.7537 478.908 81.4574ZM478.452 81.4574C478.452 80.0512 477.389 78.9425 476.073 78.9425C474.782 78.9425 473.718 80.0512 473.718 81.4574C473.718 82.8635 474.782 83.9993 476.073 83.9993C477.389 83.9723 478.452 82.8365 478.452 81.4574ZM477.313 83.134H476.655C476.629 82.9717 476.528 82.1064 476.528 82.0793C476.478 81.89 476.427 81.7819 476.199 81.7819H475.642V83.134H475.035V79.7537H476.123C476.503 79.7537 477.237 79.7537 477.237 80.6461C477.237 81.2681 476.857 81.4033 476.629 81.4844C477.06 81.5115 477.085 81.8089 477.161 82.2416C477.186 82.512 477.237 82.9717 477.313 83.134ZM476.604 80.7543C476.604 80.2946 476.3 80.2946 476.148 80.2946H475.642V81.241H476.123C476.528 81.241 476.604 80.9436 476.604 80.7543ZM407.982 42.2197C407.982 41.4896 407.628 40.8406 407.045 40.489L391.529 30.9432C391.276 30.781 390.972 30.6999 390.668 30.6728H390.516C390.213 30.6728 389.934 30.781 389.656 30.9432L374.164 40.489C373.582 40.8406 373.228 41.5166 373.228 42.2197L373.253 67.9094C373.253 68.261 373.43 68.5855 373.709 68.7748C373.987 68.964 374.342 68.964 374.645 68.7748L383.859 63.123C384.441 62.7444 384.796 62.0954 384.796 61.3923V49.3858C384.796 48.6827 385.15 48.0066 385.732 47.6551L389.656 45.2484C389.959 45.0591 390.263 44.9779 390.592 44.9779C390.921 44.9779 391.25 45.0591 391.529 45.2484L395.452 47.6551C396.034 48.0066 396.389 48.6827 396.389 49.3858V61.3923C396.389 62.0954 396.743 62.7715 397.325 63.123L406.539 68.7748C406.818 68.964 407.197 68.964 407.476 68.7748C407.754 68.6125 407.931 68.261 407.931 67.9094L407.982 42.2197ZM492.829 14.1773V61.8791C492.829 62.5822 492.475 63.2582 491.893 63.6098L476.376 73.1826C475.794 73.5341 475.085 73.5341 474.503 73.1826L458.987 63.6098C458.404 63.2582 458.05 62.5822 458.05 61.8791V42.7335C458.05 42.0304 458.404 41.3543 458.987 41.0028L474.503 31.43C475.085 31.0785 475.794 31.0785 476.376 31.43L480.249 33.8097C480.679 34.0801 481.236 33.7286 481.236 33.2148V7.79545C481.236 7.03828 481.996 6.55152 482.628 6.93011L491.868 12.4466C492.45 12.7711 492.829 13.4472 492.829 14.1773ZM481.186 49.0342C481.186 48.8449 481.084 48.6827 480.958 48.6016L475.642 45.3024C475.49 45.2213 475.313 45.2213 475.161 45.3024L469.846 48.6016C469.694 48.6827 469.618 48.8449 469.618 49.0342V55.6054C469.618 55.7947 469.719 55.9569 469.846 56.0381L475.161 59.3101C475.313 59.3912 475.49 59.3912 475.617 59.3101L480.933 56.0381C481.084 55.9569 481.16 55.7947 481.16 55.6054V49.0342H481.186ZM534.291 48.8449C534.873 48.4934 535.228 47.8173 535.228 47.1143V42.4901C535.228 41.787 534.873 41.111 534.291 40.7594L518.876 31.1866C518.294 30.8351 517.585 30.8351 517.003 31.1866L501.486 40.7594C500.904 41.111 500.55 41.787 500.55 42.4901V61.6357C500.55 62.3658 500.904 63.0148 501.486 63.3664L516.902 72.7499C517.458 73.1014 518.167 73.1014 518.749 72.7499L528.064 67.2063C528.697 66.8277 528.697 65.8542 528.064 65.4756L512.447 55.9028C512.143 55.7136 511.966 55.389 511.966 55.0375V49.0342C511.966 48.6827 512.143 48.3582 512.447 48.1689L517.307 45.1672C517.585 44.9779 517.965 44.9779 518.243 45.1672L523.103 48.1689C523.382 48.3582 523.584 48.6827 523.584 49.0342V53.7395C523.584 54.4967 524.369 54.9834 525.002 54.6048L534.291 48.8449ZM514.725 49.7914C514.623 49.8725 514.548 49.9807 514.548 50.1159V53.7936C514.548 53.9288 514.623 54.064 514.725 54.1181L517.712 55.9569C517.813 56.0381 517.965 56.0381 518.066 55.9569L521.053 54.1181C521.154 54.037 521.23 53.9288 521.23 53.7936V50.1159C521.23 49.9807 521.154 49.8455 521.053 49.7914L518.066 47.9525C517.965 47.8714 517.813 47.8714 517.712 47.9525L514.725 49.7914ZM450.38 61.5546V42.5171C450.38 41.8141 449.975 41.138 449.393 40.7865L433.927 31.2677C433.396 30.9432 432.662 30.8892 432.054 31.2677L416.588 40.7865C416.006 41.138 415.601 41.787 415.601 42.5171V61.5546C415.601 62.3118 416.082 62.9608 416.613 63.2853L432.105 72.804C432.712 73.1826 433.421 73.1555 433.978 72.804L449.418 63.2853C449.874 63.0148 450.203 62.5551 450.33 62.0143C450.355 61.8791 450.38 61.7168 450.38 61.5546ZM431.573 27.7794L431.371 27.9146H431.649L431.573 27.7794ZM450.861 62.9878L450.76 62.7985V63.0419L450.861 62.9878Z" fill="#0E3C8A"/>
<path d="M645.83 95.921C645.83 96.4105 645.267 96.8021 644.557 96.8021C643.749 96.8755 643.186 96.4839 643.186 95.921C643.186 95.4315 643.749 95.04 644.459 95.04C645.193 94.9666 645.83 95.3581 645.83 95.921ZM638.218 94.8197C638.047 95.3092 638.536 95.8721 639.271 96.0189C639.907 96.2636 640.641 96.0189 640.788 95.5294C640.935 95.04 640.47 94.4771 639.736 94.2568C639.099 94.0855 638.39 94.3302 638.218 94.8197ZM649.036 94.4037C648.326 94.575 647.836 95.04 647.91 95.6029C647.983 96.0923 648.62 96.4105 649.354 96.2392C650.064 96.0679 650.553 95.6029 650.48 95.1134C650.406 94.6484 649.745 94.3302 649.036 94.4037ZM665.139 0.620728C631.194 0.620728 605.228 26.3915 605.228 60.3364C605.228 87.4776 622.31 110.703 646.711 118.877C649.843 119.44 650.945 117.507 650.945 115.916C650.945 114.399 650.871 106.029 650.871 100.889C650.871 100.889 633.74 104.56 630.142 93.596C630.142 93.596 627.352 86.4742 623.338 84.6387C623.338 84.6387 617.734 80.7963 623.73 80.8697C623.73 80.8697 629.824 81.3592 633.177 87.1839C638.536 96.6308 647.518 93.9142 651.018 92.2989C651.581 88.3831 653.172 85.6666 654.934 84.0513C641.253 82.534 627.45 80.5516 627.45 57.008C627.45 50.2777 629.31 46.9004 633.226 42.593C632.589 41.0022 630.509 34.4433 633.862 25.9754C638.977 24.3846 650.749 32.5833 650.749 32.5833C655.644 31.2128 660.905 30.503 666.118 30.503C671.331 30.503 676.593 31.2128 681.488 32.5833C681.488 32.5833 693.259 24.3601 698.374 25.9754C701.727 34.4678 699.647 41.0022 699.011 42.593C702.927 46.9248 705.325 50.3022 705.325 57.008C705.325 80.625 690.91 82.5095 677.229 84.0513C679.481 85.9847 681.39 89.6558 681.39 95.4071C681.39 103.655 681.316 113.86 681.316 115.867C681.316 117.458 682.442 119.391 685.55 118.828C710.024 110.703 726.617 87.4776 726.617 60.3364C726.617 26.3915 699.084 0.620728 665.139 0.620728ZM629.016 85.0303C628.698 85.275 628.771 85.8379 629.188 86.3029C629.579 86.6945 630.142 86.8658 630.46 86.5476C630.778 86.3029 630.705 85.74 630.289 85.275C629.897 84.8834 629.334 84.7121 629.016 85.0303ZM626.373 83.0479C626.202 83.3661 626.446 83.7576 626.936 84.0024C627.328 84.2471 627.817 84.1737 627.988 83.8311C628.16 83.5129 627.915 83.1213 627.425 82.8766C626.936 82.7297 626.544 82.8032 626.373 83.0479ZM634.303 91.7605C633.911 92.0787 634.058 92.8129 634.621 93.2779C635.184 93.8408 635.893 93.9142 636.211 93.5226C636.53 93.2045 636.383 92.4702 635.893 92.0052C635.355 91.4424 634.621 91.3689 634.303 91.7605ZM631.513 88.1629C631.121 88.4076 631.121 89.0439 631.513 89.6068C631.904 90.1697 632.565 90.4145 632.883 90.1697C633.275 89.8516 633.275 89.2153 632.883 88.6524C632.54 88.0895 631.904 87.8447 631.513 88.1629Z" fill="#0E3C8A"/>
<path d="M895.767 41.1105C894.487 40.6837 893.207 40.2807 891.926 39.9013C892.14 39.0241 892.33 38.1469 892.519 37.2696C895.435 23.1392 893.515 11.7827 887.042 8.03667C880.807 4.45664 870.636 8.17892 860.346 17.1409C859.327 18.0181 858.331 18.9427 857.383 19.8674C856.743 19.2509 856.079 18.6345 855.415 18.0418C844.627 8.46343 833.816 4.43293 827.344 8.20263C821.132 11.8064 819.283 22.4991 821.891 35.8708C822.151 37.1985 822.436 38.5025 822.768 39.8302C821.25 40.257 819.757 40.7311 818.358 41.229C805.697 45.6152 796.617 52.5381 796.617 59.6982C796.617 67.0954 806.29 74.5162 819.449 79.0209C820.516 79.3765 821.582 79.7322 822.673 80.0404C822.317 81.4629 822.009 82.8617 821.725 84.308C819.235 97.4664 821.179 107.898 827.391 111.478C833.792 115.177 844.556 111.383 855.036 102.208C855.865 101.473 856.695 100.714 857.525 99.9084C858.568 100.928 859.659 101.9 860.749 102.848C870.897 111.573 880.926 115.106 887.114 111.526C893.515 107.827 895.601 96.6128 892.899 82.9566C892.685 81.9134 892.448 80.8465 892.187 79.7559C892.946 79.5425 893.681 79.3054 894.416 79.0683C908.096 74.5399 918.006 67.2139 918.006 59.6982C918.006 52.5144 908.665 45.544 895.767 41.1105ZM863.689 20.9817C872.509 13.3 880.736 10.289 884.482 12.4465C888.489 14.7463 890.03 24.0401 887.517 36.2502C887.351 37.0563 887.185 37.8387 886.971 38.6211C881.708 37.4356 876.373 36.5821 871.015 36.1079C867.933 31.6981 864.566 27.4779 860.915 23.5185C861.84 22.6413 862.741 21.8115 863.689 20.9817ZM836.258 72.0031C837.467 74.0657 838.7 76.1284 840.004 78.1437C836.306 77.7406 832.631 77.1479 829.003 76.3655C830.046 72.9514 831.35 69.4188 832.868 65.8151C833.958 67.9015 835.073 69.9641 836.258 72.0031ZM829.074 43.4814C832.488 42.7227 836.116 42.1062 839.886 41.6321C838.629 43.5999 837.396 45.6152 836.234 47.6541C835.073 49.6694 833.935 51.732 832.868 53.8184C831.374 50.2858 830.118 46.8243 829.074 43.4814ZM835.571 59.8167C837.135 56.5449 838.842 53.3442 840.644 50.191C842.446 47.0377 844.39 43.9792 846.429 40.9682C849.986 40.7074 853.613 40.5652 857.312 40.5652C861.01 40.5652 864.661 40.7074 868.194 40.9682C870.209 43.9555 872.13 47.014 873.955 50.1435C875.781 53.2731 877.488 56.4738 879.1 59.7219C877.512 62.9937 875.804 66.2181 873.979 69.3951C872.177 72.5484 870.257 75.6068 868.241 78.6415C864.709 78.9023 861.034 79.0209 857.312 79.0209C853.589 79.0209 849.986 78.9024 846.5 78.689C844.438 75.6779 842.494 72.5958 840.668 69.4425C838.842 66.2893 837.159 63.0886 835.571 59.8167ZM878.389 71.9557C879.598 69.8693 880.736 67.7592 881.85 65.6254C883.368 69.0632 884.695 72.5484 885.857 76.1284C882.182 76.9582 878.46 77.5984 874.714 78.0251C875.994 76.0336 877.203 73.9946 878.389 71.9557ZM881.803 53.8184C880.688 51.732 879.55 49.6457 878.365 47.6067C877.203 45.5914 875.994 43.5999 874.738 41.6321C878.555 42.1062 882.206 42.7464 885.62 43.5288C884.529 47.0377 883.249 50.4518 881.803 53.8184ZM857.359 27.146C859.848 29.8488 862.196 32.6938 864.377 35.6337C859.682 35.4204 854.964 35.4204 850.27 35.6337C852.594 32.5753 854.988 29.7302 857.359 27.146ZM829.857 12.6125C833.84 10.289 842.683 13.6082 852.001 21.8589C852.594 22.3805 853.186 22.9495 853.803 23.5185C850.128 27.4779 846.737 31.6981 843.632 36.1079C838.273 36.5821 832.963 37.4119 827.699 38.5736C827.391 37.3645 827.13 36.1316 826.869 34.8988C824.641 23.4237 826.111 14.77 829.857 12.6125ZM824.048 75.1089C823.052 74.8244 822.08 74.5162 821.108 74.1843C816.058 72.5958 810.321 70.0827 806.172 66.7871C803.777 65.1275 802.165 62.567 801.714 59.6982C801.714 55.3595 809.206 49.8116 820.018 46.0419C821.369 45.5677 822.744 45.141 824.119 44.7379C825.731 49.8827 827.676 54.9327 829.928 59.8167C827.652 64.7719 825.684 69.893 824.048 75.1089ZM851.693 98.3436C847.781 101.924 843.252 104.769 838.321 106.713C835.689 107.969 832.654 108.088 829.952 107.021C826.182 104.84 824.617 96.4706 826.751 85.2089C827.012 83.8812 827.296 82.5535 827.628 81.2495C832.939 82.3875 838.297 83.1699 843.726 83.573C846.856 88.0065 850.294 92.2504 853.969 96.2335C853.21 96.9685 852.451 97.6797 851.693 98.3436ZM857.501 92.5823C855.083 89.9744 852.665 87.0819 850.317 83.976C852.594 84.0709 854.941 84.1183 857.312 84.1183C859.754 84.1183 862.148 84.0709 864.519 83.9523C862.338 86.9633 859.991 89.8321 857.501 92.5823ZM888.489 99.695C888.275 102.587 886.853 105.29 884.577 107.116C880.807 109.297 872.77 106.452 864.092 99.0074C863.097 98.1539 862.101 97.2293 861.081 96.2809C864.709 92.2741 868.052 88.0302 871.086 83.573C876.516 83.1225 881.921 82.2927 887.256 81.0836C887.493 82.0556 887.706 83.0277 887.896 83.976C889.058 89.0971 889.247 94.4316 888.489 99.695ZM892.804 74.208C892.14 74.4214 891.476 74.6348 890.788 74.8244C889.129 69.6559 887.09 64.6059 884.743 59.6982C887.019 54.8616 888.939 49.8827 890.551 44.7853C891.784 45.141 892.97 45.5203 894.108 45.8997C905.156 49.6931 912.909 55.3358 912.909 59.6508C912.909 64.2977 904.634 70.296 892.804 74.208ZM857.312 70.6517C863.31 70.6517 868.17 65.7914 868.17 59.793C868.17 53.7947 863.31 48.9344 857.312 48.9344C851.313 48.9344 846.453 53.7947 846.453 59.793C846.453 65.7914 851.313 70.6517 857.312 70.6517Z" fill="#0E3C8A"/>
<path d="M1026.97 48.3562C1026.82 53.2481 1029.26 55.4144 1029.32 56.7901C1029.29 57.0701 1029.2 57.3392 1029.04 57.5748C1028.89 57.8104 1028.68 58.0057 1028.44 58.1443L1025.67 60.0795C1025.31 60.3303 1024.89 60.4741 1024.45 60.4941C1024.36 60.4898 1022.69 60.8894 1020.03 54.963C1018.41 56.9844 1016.35 58.6086 1014.01 59.711C1011.66 60.8135 1009.1 61.3651 1006.51 61.3235C1002.99 61.5157 993.464 59.3279 993.955 49.1834C993.611 40.9158 1001.31 35.7798 1009.27 36.214C1010.81 36.2183 1013.94 36.2939 1019.42 37.5681V34.1946C1020 28.4798 1016.25 24.0458 1009.74 24.711C1009.23 24.7132 1005.55 24.603 999.844 26.8945C998.255 27.6245 998.052 27.5036 997.523 27.5036C995.922 27.5036 996.581 22.8644 996.888 22.2769C998.013 20.8947 1004.63 18.3138 1011.13 18.3505C1015.47 17.9663 1019.79 19.3069 1023.16 22.0826C1024.52 23.6119 1025.57 25.4024 1026.22 27.346C1026.88 29.2897 1027.13 31.3461 1026.97 33.3911L1026.97 48.3562ZM1008.31 55.3517C1015.31 55.2502 1018.28 51.0387 1018.95 48.7709C1019.48 46.6003 1019.39 45.2267 1019.39 42.8531C1017.31 42.352 1014.3 41.8056 1010.85 41.8013C1007.58 41.5551 1001.6 43.0173 1001.84 48.7687C1001.57 52.395 1004.24 55.5504 1008.31 55.3517ZM1045.22 60.33C1043.52 60.4855 1042.73 59.2804 1042.48 58.0903L1031.73 22.5296C1031.52 21.9292 1031.38 21.3094 1031.31 20.6765C1031.27 20.4157 1031.34 20.1497 1031.49 19.9371C1031.65 19.7245 1031.89 19.5826 1032.15 19.5427C1032.2 19.534 1031.69 19.5427 1036.95 19.5427C1038.85 19.3526 1039.47 20.845 1039.66 21.7824L1047.38 52.1985L1054.54 21.7824C1054.65 21.0869 1055.17 19.3915 1057.3 19.5707H1061.01C1061.48 19.5319 1063.41 19.4628 1063.75 21.8104L1070.97 52.6153L1078.93 21.8104C1079.03 21.3396 1079.52 19.3548 1081.67 19.5707H1085.93C1086.11 19.5427 1087.25 19.3958 1087.06 21.4238C1086.97 21.8234 1087.8 19.1215 1075.67 58.1184C1075.42 59.3084 1074.63 60.5136 1072.93 60.3581H1068.89C1066.53 60.6065 1066.19 58.2717 1066.15 58.0363L1058.99 28.4193L1051.91 58.0061C1051.88 58.2415 1051.54 60.5762 1049.17 60.3278H1045.22V60.33ZM1104.29 61.546C1103.02 61.5481 1096.96 61.4812 1091.9 58.8916C1091.39 58.6781 1090.96 58.3196 1090.66 57.8617C1090.36 57.4037 1090.21 56.8669 1090.21 56.3193V53.9975C1090.21 52.1725 1091.55 52.5073 1092.12 52.7254C1094.29 53.6023 1095.68 54.2675 1098.34 54.7988C1106.26 56.4251 1109.74 54.3021 1110.59 53.8312C1113.43 52.1445 1113.66 48.2849 1111.72 46.2828C1109.46 44.3844 1108.38 44.3131 1100.25 41.7473C1099.25 41.4687 1090.81 38.8079 1090.79 30.4387C1090.66 24.3395 1096.2 18.3051 1105.81 18.3548C1108.54 18.3526 1115.84 19.2468 1117.81 21.7284C1118.1 22.1797 1118.25 22.7111 1118.22 23.2488V25.4324C1118.22 26.3913 1117.87 26.8708 1117.17 26.8708C1115.51 26.685 1112.55 24.4583 1106.55 24.549C1105.07 24.4713 1097.94 24.7456 1098.26 29.942C1098.17 34.0369 1104.01 35.5725 1104.67 35.7496C1112.55 38.1189 1115.18 38.512 1118.31 42.1382C1122.01 46.9437 1120.01 52.5699 1119.25 54.112C1115.12 62.209 1104.47 61.5503 1104.29 61.546ZM1112.97 84.1934C1097.84 95.3637 1075.89 101.31 1057.14 101.31C1031.85 101.476 1007.4 92.1753 988.618 75.2346C987.207 73.9625 988.452 72.2196 990.166 73.1893C1011 85.1094 1034.6 91.3727 1058.61 91.3573C1076.53 91.2612 1094.27 87.6243 1110.78 80.6556C1113.33 79.5758 1115.49 82.3403 1112.97 84.1934ZM1119.27 77.0035C1117.34 74.5154 1106.47 75.8415 1101.6 76.4225C1100.14 76.5888 1099.89 75.3167 1101.22 74.3772C1109.87 68.2931 1124.09 70.036 1125.72 72.0813C1127.35 74.1266 1125.28 88.3682 1117.17 95.1715C1115.93 96.2233 1114.74 95.6682 1115.29 94.286C1117.12 89.6965 1121.21 79.4937 1119.27 77.0035Z" fill="#0E3C8A"/>
<path d="M1283.73 45.8405C1283.73 88.5489 1246.23 101.466 1246.23 101.466C1246.23 101.466 1208.73 88.5489 1208.73 45.8405C1208.73 40.6322 1209.15 36.2572 1209.57 32.7155C1210.19 27.5072 1213.73 23.3405 1218.73 22.0905C1225.19 20.2155 1235.4 18.1322 1246.23 18.1322C1257.07 18.1322 1267.28 20.2155 1273.94 22.0905C1278.94 23.3405 1282.48 27.7155 1283.11 32.7155C1283.32 36.2572 1283.73 40.8405 1283.73 45.8405Z" fill="white"/>
<path d="M1246.23 24.3822C1256.44 24.3822 1266.03 26.4655 1272.28 28.1322C1274.78 28.7572 1276.44 30.8405 1276.86 33.5489C1277.28 37.5072 1277.48 41.6739 1277.48 45.8405C1277.48 78.3405 1253.53 91.4655 1246.23 94.5905C1238.94 91.2572 1214.98 78.1322 1214.98 45.8405C1214.98 41.6739 1215.19 37.5072 1215.61 33.5489C1215.82 30.8405 1217.69 28.7572 1220.19 28.1322C1226.44 26.4655 1236.03 24.3822 1246.23 24.3822ZM1246.23 18.1322C1235.4 18.1322 1225.19 20.2155 1218.53 22.0905C1213.73 23.3405 1209.98 27.7155 1209.57 32.7155C1209.15 36.2572 1208.73 40.8405 1208.73 45.8405C1208.73 88.5489 1246.23 101.466 1246.23 101.466C1246.23 101.466 1283.73 88.5489 1283.73 45.8405C1283.73 40.6322 1283.32 36.2572 1282.9 32.7155C1282.28 27.5072 1278.73 23.3405 1273.73 22.0905C1267.28 20.2155 1257.07 18.1322 1246.23 18.1322Z" fill="#0E3C8A"/>
<path d="M1244.15 68.1322H1248.32V84.7989H1244.15V68.1322Z" fill="#0E3C8A"/>
<path d="M1246.23 30.6322C1246.23 30.6322 1233.73 41.0489 1233.73 57.7155C1233.73 68.5489 1240.61 75.4239 1244.15 78.5489L1246.23 72.2989L1248.32 78.5489C1251.86 75.4239 1258.73 68.5489 1258.73 57.7155C1258.73 41.0489 1246.23 30.6322 1246.23 30.6322Z" fill="#0E3C8A"/>
<path d="M1246.23 30.6322C1246.23 30.6322 1233.73 41.0489 1233.73 57.7155C1233.73 68.5489 1240.61 75.4239 1244.15 78.5489L1246.23 72.2989V30.6322Z" fill="#0E3C8A"/>
</svg>
